<svg xmlns="http://www.w3.org/2000/svg" id="Layer_2" viewBox="0 0 1358.98 356.53"><defs><style>.cls-1,.cls-2{opacity:.5;}.cls-2,.cls-3{fill:#1161d8;}.cls-4{opacity:.1;}.cls-5{opacity:.3;}</style></defs><g id="Layer_1-2"><g><g><path class="cls-3" d="m315.54,143.4c0-45.25,32.37-83.53,80.75-83.53s79.7,32.02,80.4,74.83c0,12.88-7.66,20.19-20.88,20.19h-90.15c1.39,18.45,19.49,31.33,44.55,31.33,9.75,0,22.28-1.39,34.81-5.22,11.49-3.13,22.62,5.57,22.62,17.4,0,7.31-4.52,13.92-10.79,16.71-21.58,9.4-41.77,10.09-51.16,10.09-51.16,0-90.15-32.02-90.15-81.79Zm112.77-19.49c-2.09-14.97-14.27-25.41-30.98-25.41s-28.89,10.44-31.67,25.41h62.65Z"></path><path class="cls-3" d="m531.68,201.87l-42.81-109.98c-.7-2.44-1.39-5.57-1.39-8.35,0-12.88,10.44-23.67,23.32-23.67,10.79,0,19.84,6.96,22.62,16.01l32.02,91.89,32.37-91.89c2.78-9.05,11.83-16.01,22.28-16.01,12.88,0,23.32,10.44,23.32,23.32,0,3.13-.7,5.92-1.39,8.35l-42.81,110.33c-4.87,13.57-18.45,23.67-34.11,23.67s-28.89-10.09-33.41-23.67Z"></path><path class="cls-3" d="m655.23,142.35c0-45.25,36.89-82.84,86.32-82.84s85.97,37.94,85.97,82.84c0,48.03-38.63,83.18-86.67,83.18s-85.62-36.2-85.62-83.18Zm122.51,0c0-22.62-14.97-38.98-36.89-38.98s-35.85,16.71-35.85,38.98,14.62,39.33,36.55,39.33,36.2-15.66,36.2-39.33Z"></path><path class="cls-3" d="m850.14,200.48V25.06c0-13.57,10.79-25.06,24.71-25.06s24.71,11.49,24.71,25.06v175.42c0,13.57-10.79,25.06-24.71,25.06s-24.71-11.49-24.71-25.06Z"></path><path class="cls-3" d="m928.1,200.48V25.06c0-13.57,10.79-25.06,24.71-25.06s24.71,11.49,24.71,25.06v175.42c0,13.57-10.79,25.06-24.71,25.06s-24.71-11.49-24.71-25.06Z"></path><path class="cls-3" d="m1006.06,158.71v-73.79c0-13.57,11.14-25.06,25.06-25.06s24.71,11.49,24.71,25.06v64.39c0,23.67,11.14,34.46,28.19,34.46s30.63-11.83,30.63-35.15v-63.69c0-13.57,10.79-25.06,24.71-25.06s24.71,11.49,24.71,25.06l.7,115.55c0,13.57-11.49,25.06-25.41,25.06-12.18,0-22.97-9.05-24.71-20.19v-6.26c-10.44,16.01-27.15,26.45-47.68,26.45-39.33,0-60.91-26.45-60.91-66.83Z"></path><path class="cls-3" d="m1186.7,142.35c0-45.25,36.89-82.84,86.32-82.84s85.97,37.94,85.97,82.84c0,48.03-38.63,83.18-86.67,83.18s-85.62-36.2-85.62-83.18Zm122.51,0c0-22.62-14.97-38.98-36.89-38.98s-35.85,16.71-35.85,38.98,14.62,39.33,36.55,39.33,36.2-15.66,36.2-39.33Z"></path></g><g><g class="cls-4"><path class="cls-3" d="m.89,207.71l25.07-25.07,69.86-69.86L25.96,42.91,0,16.95l.65-1.64C2.65,10.3,6.3,6.04,11.11,3.58,23.34-2.69,38.74-.71,48.96,9.52l80.25,80.25c12.68,12.68,12.68,33.32,0,46.01l-80.25,80.25c-6.13,6.13-14.3,9.51-23,9.51-3.5,0-6.91-.55-10.13-1.6-7.45-2.43-13.05-8.63-14.94-16.24h0Z"></path></g><g class="cls-5"><path class="cls-3" d="m74.65,207.71l25.07-25.07,69.86-69.86L99.72,42.91l-25.96-25.96.65-1.64c2-5.02,5.65-9.27,10.45-11.73,12.23-6.27,27.63-4.29,37.86,5.94l80.25,80.25c12.68,12.68,12.68,33.32,0,46.01l-80.25,80.25c-6.13,6.13-14.3,9.51-23,9.51-3.5,0-6.91-.55-10.13-1.6-7.45-2.43-13.05-8.63-14.94-16.24h0Z"></path></g><g class="cls-1"><path class="cls-3" d="m150.2,207.71l25.07-25.07,69.86-69.86-69.86-69.86-25.96-25.96.65-1.64c2-5.02,5.65-9.27,10.45-11.73,12.23-6.27,27.63-4.29,37.86,5.94l80.25,80.25c12.68,12.68,12.68,33.32,0,46.01l-80.25,80.25c-6.13,6.13-14.3,9.51-23,9.51-3.5,0-6.91-.55-10.13-1.6-7.45-2.43-13.05-8.63-14.94-16.24h0Z"></path></g></g><g><path class="cls-3" d="m926.98,323.52c0-2.96.61-5.53,1.84-7.71s2.85-3.97,4.87-5.39c2.02-1.42,4.34-2.47,6.95-3.17,2.62-.69,5.31-1.04,8.09-1.04,2.21,0,4.53.22,6.95.66,2.43.44,4.56,1.1,6.39,1.99,0-2.33-.32-4.21-.95-5.63-.63-1.42-1.46-2.54-2.5-3.36-1.04-.82-2.24-1.37-3.6-1.65-1.35-.28-2.76-.43-4.21-.43-2.02,0-3.99.19-5.91.57s-3.51.82-4.77,1.32c-.63.25-1.12.41-1.47.47s-.68.09-.99.09c-1.32,0-2.49-.47-3.49-1.42-1.01-.95-1.51-2.14-1.51-3.59,0-1.01.33-1.97.99-2.88.66-.92,1.91-1.72,3.74-2.41,1.51-.63,3.42-1.15,5.72-1.56,2.3-.41,4.77-.61,7.42-.61,3.28,0,6.4.39,9.36,1.18,2.97.79,5.55,2.01,7.76,3.64,2.2,1.64,3.95,3.72,5.25,6.24,1.29,2.52,1.94,5.49,1.94,8.89v25.92c0,1.58-.52,2.84-1.56,3.78-1.04.95-2.41,1.42-4.11,1.42-1.83,0-3.25-.54-4.26-1.61-1.01-1.07-1.58-2.49-1.7-4.26-3.09,2.21-6.03,3.73-8.8,4.59-2.77.85-5.67,1.28-8.7,1.28-5.74,0-10.3-1.31-13.67-3.93-3.38-2.61-5.06-6.42-5.06-11.4Zm21.84,5.77c2.65,0,5.08-.44,7.29-1.33,2.2-.88,4.19-1.95,5.96-3.22v-7.19c-1.33-.57-3.05-1.07-5.16-1.51s-4.21-.66-6.29-.66c-1.45,0-2.84.13-4.17.38-1.32.25-2.47.68-3.45,1.28-.97.6-1.76,1.37-2.37,2.32-.6.95-.89,2.08-.89,3.4,0,1.45.31,2.6.94,3.45.63.85,1.4,1.5,2.32,1.94.91.44,1.89.74,2.94.9,1.04.16,2,.24,2.88.24Z"></path><path class="cls-3" d="m989.5,287.86c1.45,0,2.74.49,3.87,1.46,1.14.98,1.8,2.23,1.99,3.74l.19,3.4c1.83-2.65,4.03-4.76,6.62-6.34,2.58-1.57,5.39-2.36,8.42-2.36,2.71,0,5.28.66,7.71,1.98,2.43,1.33,4.54,3.12,6.34,5.39,1.79,2.27,3.22,4.95,4.25,8.04,1.04,3.09,1.56,6.43,1.56,10.03s-.52,6.95-1.56,10.07c-1.04,3.12-2.48,5.83-4.3,8.13-1.83,2.3-3.96,4.11-6.39,5.44s-5.06,1.99-7.9,1.99-5.26-.63-7.66-1.89c-2.4-1.26-4.51-3.03-6.34-5.3v18.45c0,1.83-.61,3.36-1.84,4.59-1.23,1.23-2.73,1.84-4.49,1.84s-3.36-.61-4.59-1.84c-1.23-1.23-1.84-2.76-1.84-4.59v-56.28c0-1.64.58-3.04,1.75-4.21s2.56-1.75,4.21-1.75Zm6.72,25.82c0,2.02.28,3.91.85,5.67.56,1.77,1.35,3.31,2.37,4.63,1.01,1.33,2.16,2.37,3.45,3.12s2.69,1.14,4.21,1.14,2.95-.39,4.3-1.18c1.36-.79,2.54-1.87,3.55-3.26,1.01-1.39,1.79-3,2.37-4.83.56-1.83.85-3.75.85-5.77s-.29-3.92-.85-5.72c-.57-1.8-1.36-3.36-2.37-4.68-1.01-1.33-2.16-2.38-3.46-3.17-1.29-.79-2.69-1.18-4.21-1.18s-2.95.41-4.3,1.23c-1.35.82-2.54,1.92-3.54,3.31-1.01,1.39-1.8,3.01-2.37,4.87-.57,1.86-.85,3.8-.85,5.82Z"></path><path class="cls-3" d="m1048.51,296.38c.51-.76,1.14-1.64,1.89-2.65.76-1.01,1.6-1.94,2.51-2.79.91-.85,1.89-1.57,2.93-2.18,1.04-.6,2.13-.9,3.27-.9,1.45,0,2.77.54,3.97,1.61,1.2,1.07,1.8,2.46,1.8,4.16,0,1.45-.48,2.68-1.42,3.69-.94,1.01-2.33,1.7-4.16,2.08-1.14.25-2.3.7-3.5,1.33s-2.27,1.5-3.22,2.6c-.95,1.1-1.74,2.44-2.37,4.02-.63,1.58-.95,3.44-.95,5.58v19.49c0,1.83-.61,3.36-1.84,4.59s-2.73,1.84-4.49,1.84-3.35-.61-4.59-1.84c-1.23-1.23-1.84-2.76-1.84-4.59v-38.69c0-1.64.57-3.03,1.71-4.16,1.13-1.14,2.52-1.7,4.16-1.7,1.51,0,2.84.51,3.97,1.51s1.76,2.27,1.89,3.78l.28,3.22Z"></path><path class="cls-3" d="m1101.1,324.37c1.39,0,2.62.52,3.69,1.56,1.07,1.04,1.61,2.29,1.61,3.74,0,.76-.2,1.55-.61,2.37-.42.82-1.15,1.67-2.22,2.55-1.58,1.26-3.55,2.28-5.92,3.07s-5.03,1.18-7.99,1.18c-3.47,0-6.64-.6-9.51-1.8s-5.34-2.9-7.42-5.11c-2.08-2.21-3.71-4.85-4.87-7.95-1.17-3.09-1.74-6.49-1.74-10.21,0-3.97.63-7.55,1.89-10.74,1.26-3.18,2.97-5.89,5.11-8.13,2.14-2.24,4.64-3.95,7.47-5.16,2.84-1.19,5.87-1.8,9.08-1.8,3.53,0,6.78.7,9.74,2.08s5.5,3.18,7.62,5.39c2.11,2.21,3.75,4.68,4.92,7.42,1.17,2.74,1.75,5.47,1.75,8.18s-.53,4.68-1.61,5.91c-1.07,1.23-2.33,1.84-3.79,1.84h-29.32c.32,2.78,1.45,5.05,3.4,6.81s4.54,2.65,7.76,2.65c2.84,0,5.26-.79,7.28-2.37,1.26-1.01,2.49-1.51,3.69-1.51Zm.29-13.62c0-1.77-.32-3.39-.94-4.87-.63-1.48-1.5-2.76-2.6-3.83-1.1-1.07-2.37-1.92-3.79-2.55-1.42-.63-2.89-.94-4.39-.94s-3.05.32-4.4.94c-1.35.63-2.54,1.48-3.54,2.55-1.01,1.07-1.81,2.35-2.41,3.83-.6,1.48-.9,3.11-.9,4.87h22.99Z"></path><path class="cls-3" d="m1125.7,287.86c1.51,0,2.84.51,3.97,1.51s1.8,2.24,1.99,3.69l.29,4.26c1.64-2.84,3.84-5.12,6.62-6.86s5.8-2.6,9.08-2.6c2.33,0,4.53.46,6.57,1.37,2.05.92,3.83,2.16,5.34,3.74s2.71,3.44,3.59,5.58,1.33,4.41,1.33,6.81v27.43c0,1.64-.6,3.06-1.8,4.26-1.2,1.2-2.62,1.8-4.26,1.8s-3.05-.6-4.25-1.8c-1.2-1.2-1.8-2.62-1.8-4.26v-24.78c0-3.22-.74-5.63-2.22-7.23-1.48-1.61-3.61-2.41-6.38-2.41-3.03,0-5.55.87-7.57,2.6-2.02,1.73-3.22,3.93-3.59,6.57v24.88c0,1.83-.62,3.36-1.85,4.59-1.23,1.23-2.73,1.84-4.49,1.84s-3.36-.61-4.59-1.84c-1.24-1.23-1.85-2.76-1.85-4.59v-38.69c0-1.64.57-3.03,1.71-4.16,1.14-1.14,2.52-1.7,4.16-1.7Z"></path><path class="cls-3" d="m1170.26,313.78c0-3.78.56-7.27,1.7-10.45,1.14-3.18,2.64-5.91,4.54-8.18,1.89-2.27,4.08-4.05,6.57-5.34s5.09-1.94,7.8-1.94,5.41.66,7.71,1.99,4.27,3.06,5.92,5.2v-20.43c0-1.83.61-3.36,1.84-4.59,1.23-1.23,2.76-1.84,4.59-1.84s3.26.61,4.49,1.84c1.24,1.23,1.85,2.76,1.85,4.59v58.27c0,1.64-.58,3.04-1.75,4.21-1.17,1.17-2.57,1.75-4.21,1.75-1.45,0-2.76-.49-3.93-1.46-1.17-.98-1.81-2.22-1.94-3.74l-.29-3.97c-1.89,2.84-4.19,5.08-6.9,6.72-2.71,1.64-5.61,2.46-8.7,2.46-2.77,0-5.34-.66-7.71-1.99s-4.39-3.12-6.1-5.39c-1.7-2.27-3.04-4.93-4.02-7.99-.98-3.06-1.46-6.29-1.46-9.7Zm12.39,0c0,2.21.27,4.24.8,6.1.53,1.86,1.28,3.47,2.22,4.82.95,1.36,2.05,2.43,3.31,3.22,1.26.79,2.61,1.18,4.07,1.18s2.87-.39,4.25-1.18c1.39-.79,2.62-1.89,3.69-3.31,1.07-1.42,1.92-3.11,2.55-5.06.63-1.95.95-4.13.95-6.53,0-2.08-.25-4.03-.76-5.86-.51-1.83-1.23-3.42-2.18-4.78-.94-1.36-2.07-2.43-3.36-3.22s-2.69-1.18-4.21-1.18-2.95.38-4.3,1.14c-1.36.75-2.56,1.83-3.59,3.22-1.04,1.39-1.88,3.06-2.51,5.01-.63,1.96-.94,4.1-.94,6.43Z"></path><path class="cls-3" d="m1257.65,324.37c1.39,0,2.62.52,3.69,1.56,1.07,1.04,1.61,2.29,1.61,3.74,0,.76-.2,1.55-.61,2.37-.42.82-1.15,1.67-2.22,2.55-1.58,1.26-3.55,2.28-5.92,3.07s-5.03,1.18-7.99,1.18c-3.47,0-6.64-.6-9.51-1.8-2.87-1.2-5.34-2.9-7.42-5.11-2.08-2.21-3.71-4.85-4.87-7.95-1.17-3.09-1.74-6.49-1.74-10.21,0-3.97.63-7.55,1.89-10.74,1.26-3.18,2.97-5.89,5.11-8.13,2.14-2.24,4.64-3.95,7.47-5.16,2.84-1.19,5.87-1.8,9.08-1.8,3.53,0,6.78.7,9.74,2.08s5.5,3.18,7.62,5.39c2.11,2.21,3.75,4.68,4.92,7.42,1.17,2.74,1.75,5.47,1.75,8.18s-.53,4.68-1.61,5.91c-1.07,1.23-2.33,1.84-3.79,1.84h-29.32c.32,2.78,1.45,5.05,3.4,6.81,1.96,1.77,4.54,2.65,7.76,2.65,2.84,0,5.26-.79,7.28-2.37,1.26-1.01,2.49-1.51,3.69-1.51Zm.29-13.62c0-1.77-.32-3.39-.94-4.87-.63-1.48-1.5-2.76-2.6-3.83-1.1-1.07-2.37-1.92-3.79-2.55-1.42-.63-2.89-.94-4.39-.94s-3.05.32-4.4.94c-1.35.63-2.54,1.48-3.54,2.55-1.01,1.07-1.81,2.35-2.41,3.83-.6,1.48-.9,3.11-.9,4.87h22.99Z"></path><path class="cls-2" d="m1273.64,323.52c0-2.96.61-5.53,1.84-7.71s2.85-3.97,4.87-5.39,4.34-2.47,6.95-3.17c2.62-.69,5.31-1.04,8.09-1.04,2.21,0,4.53.22,6.95.66,2.43.44,4.56,1.1,6.39,1.99,0-2.33-.32-4.21-.95-5.63-.63-1.42-1.46-2.54-2.5-3.36-1.04-.82-2.24-1.37-3.6-1.65-1.35-.28-2.76-.43-4.21-.43-2.02,0-3.99.19-5.91.57s-3.51.82-4.77,1.32c-.63.25-1.12.41-1.47.47s-.68.09-.99.09c-1.32,0-2.49-.47-3.49-1.42-1.01-.95-1.51-2.14-1.51-3.59,0-1.01.33-1.97.99-2.88.66-.92,1.91-1.72,3.74-2.41,1.51-.63,3.42-1.15,5.72-1.56,2.3-.41,4.77-.61,7.42-.61,3.28,0,6.4.39,9.36,1.18,2.97.79,5.55,2.01,7.76,3.64,2.2,1.64,3.95,3.72,5.25,6.24,1.29,2.52,1.94,5.49,1.94,8.89v25.92c0,1.58-.52,2.84-1.56,3.78-1.04.95-2.41,1.42-4.11,1.42-1.83,0-3.25-.54-4.26-1.61-1.01-1.07-1.58-2.49-1.7-4.26-3.09,2.21-6.03,3.73-8.8,4.59-2.77.85-5.67,1.28-8.7,1.28-5.74,0-10.3-1.31-13.67-3.93-3.38-2.61-5.06-6.42-5.06-11.4Zm21.84,5.77c2.65,0,5.08-.44,7.29-1.33,2.2-.88,4.19-1.95,5.96-3.22v-7.19c-1.33-.57-3.05-1.07-5.16-1.51s-4.21-.66-6.29-.66c-1.45,0-2.84.13-4.17.38-1.32.25-2.47.68-3.45,1.28-.97.6-1.76,1.37-2.37,2.32-.6.95-.89,2.08-.89,3.4,0,1.45.31,2.6.94,3.45.63.85,1.4,1.5,2.32,1.94.91.44,1.89.74,2.94.9,1.04.16,2,.24,2.88.24Z"></path><path class="cls-2" d="m1337.48,338.85c-1.83,0-3.36-.61-4.59-1.84s-1.84-2.76-1.84-4.59v-38.12c0-1.83.61-3.36,1.84-4.59s2.76-1.84,4.59-1.84,3.27.61,4.49,1.84,1.84,2.76,1.84,4.59v38.12c0,1.83-.61,3.36-1.84,4.59s-2.73,1.84-4.49,1.84Zm4.26-70.47c.5-.69,1.12-1.2,1.84-1.51.73-.32,1.46-.47,2.22-.47,1.51,0,2.79.55,3.83,1.65,1.04,1.1,1.56,2.32,1.56,3.64s-.6,2.59-1.8,3.59l-4.64,3.97c-1.58,1.26-3.34,1.89-5.29,1.89h-3.59c-.63,0-1.14-.22-1.51-.66s-.56-.91-.56-1.42c0-.44.12-.82.38-1.14l7.57-9.55Z"></path></g></g></g></svg>